<svg width="414" height="896" viewBox="0 0 414 896" fill="none" xmlns="http://www.w3.org/2000/svg">
<g clip-path="url(#clip0)">
<rect width="414" height="896" fill="white"/>
<path d="M108 355.652C108 260.152 0 292.152 0 292.152V716.152C0 716.152 200.5 724.652 144 590.652C131.714 561.514 133.854 499.944 177 468.152C224.5 433.152 229 315.152 108 355.652Z" fill="#57DBDE"/>
<path d="M108 355.652C108 260.152 0 292.152 0 292.152V716.152C0 716.152 200.5 724.652 144 590.652C131.714 561.514 133.854 499.944 177 468.152C224.5 433.152 229 315.152 108 355.652Z" fill="url(#paint0_linear)"/>
<path d="M89.2733 373.454C89.2733 289.358 0 317.537 0 317.537V690.905C0 690.905 165.734 698.39 119.031 580.392C108.875 554.733 110.645 500.515 146.309 472.52C185.573 441.699 189.292 337.79 89.2733 373.454Z" fill="#508FDA"/>
<path d="M89.2733 373.454C89.2733 289.358 0 317.537 0 317.537V690.905C0 690.905 165.734 698.39 119.031 580.392C108.875 554.733 110.645 500.515 146.309 472.52C185.573 441.699 189.292 337.79 89.2733 373.454Z" fill="url(#paint1_linear)"/>
<path d="M108.771 896C103.773 831.057 120.765 723.158 228.714 811.11C249.12 827.736 295.378 846.233 319.643 814.001C320.337 813.079 321.013 812.116 321.67 811.11C331.665 795.802 364.05 771.309 413.626 795.802C463.203 820.295 434.283 872.806 413.626 896H108.771Z" fill="#F98E46"/>
<path d="M108.771 896C103.773 831.057 120.765 723.158 228.714 811.11C249.12 827.736 295.378 846.233 319.643 814.001C320.337 813.079 321.013 812.116 321.67 811.11C331.665 795.802 364.05 771.309 413.626 795.802C463.203 820.295 434.283 872.806 413.626 896H108.771Z" fill="url(#paint2_linear)"/>
<path d="M287 790C259.067 731.245 183 832.667 175 897H415V815C415 815 350 874 328 866C300.6 856.037 314.932 848.754 287 790Z" fill="#F88730"/>
<path d="M287 790C259.067 731.245 183 832.667 175 897H415V815C415 815 350 874 328 866C300.6 856.037 314.932 848.754 287 790Z" fill="url(#paint3_linear)"/>
</g>
<defs>
<linearGradient id="paint0_linear" x1="104.04" y1="287" x2="104.04" y2="716.26" gradientUnits="userSpaceOnUse">
<stop stop-color="#78A1E5" stop-opacity="0.75"/>
<stop offset="1" stop-color="white" stop-opacity="0"/>
</linearGradient>
<linearGradient id="paint1_linear" x1="86" y1="313" x2="86" y2="691" gradientUnits="userSpaceOnUse">
<stop stop-color="#30C2D6"/>
<stop offset="1" stop-color="white" stop-opacity="0"/>
</linearGradient>
<linearGradient id="paint2_linear" x1="401.632" y1="896" x2="107.712" y2="900.308" gradientUnits="userSpaceOnUse">
<stop stop-color="#F9C154"/>
<stop offset="1" stop-color="white" stop-opacity="0"/>
</linearGradient>
<linearGradient id="paint3_linear" x1="415" y1="897" x2="175" y2="897" gradientUnits="userSpaceOnUse">
<stop stop-color="#F9BC51"/>
<stop offset="1" stop-color="white" stop-opacity="0"/>
</linearGradient>
<clipPath id="clip0">
<rect width="414" height="896" fill="white"/>
</clipPath>
</defs>
</svg>
