<svg width="1013" height="637" viewBox="0 0 1013 637" fill="none" xmlns="http://www.w3.org/2000/svg">
<g clip-path="url(#clip0)">
<path d="M378.793 266.434C378.793 266.434 461.793 270.434 466.793 299.434C471.793 328.434 369.793 302.434 369.793 302.434L378.793 266.434Z" fill="#A0616A"/>
<path d="M247.793 174.434C247.793 174.434 261.793 178.434 272.793 202.434C283.793 226.434 305.793 248.434 305.793 248.434L394.793 265.434L379.793 310.434L294.793 299.434L241.793 269.434L247.793 174.434Z" fill="#D60E64"/>
<path opacity="0.1" d="M247.793 174.434C247.793 174.434 261.793 178.434 272.793 202.434C283.793 226.434 305.793 248.434 305.793 248.434L394.793 265.434L379.793 310.434L294.793 299.434L241.793 269.434L247.793 174.434Z" fill="black"/>
<path d="M929.293 92.9343H824.293V94.9343H929.293V92.9343Z" fill="#3F3D56"/>
<path d="M742.293 92.9343H409.293V94.9343H742.293V92.9343Z" fill="#3F3D56"/>
<path d="M819.293 333.934H30.2931V634.934H819.293V333.934Z" fill="#3F3D56"/>
<path d="M115.793 128.434L124.793 185.434L186.793 188.434L179.793 104.434L115.793 128.434Z" fill="#A0616A"/>
<path d="M50.2931 508.934L47.2931 634.934H141.293L155.293 584.934L166.293 634.934H264.293C264.293 634.934 266.293 490.934 255.293 489.934C244.293 488.934 50.2931 508.934 50.2931 508.934Z" fill="#2F2E41"/>
<path d="M135.793 143.434C165.616 143.434 189.793 119.258 189.793 89.4343C189.793 59.611 165.616 35.4343 135.793 35.4343C105.97 35.4343 81.7931 59.611 81.7931 89.4343C81.7931 119.258 105.97 143.434 135.793 143.434Z" fill="#A0616A"/>
<path d="M44.7931 514.434L72.7931 376.434L35.7931 193.434L121.007 161.458L162.793 156.434L183.8 152.513L198.793 156.434C198.793 156.434 258.793 171.434 261.793 182.434C264.793 193.434 249.793 283.434 249.793 283.434L235.793 357.434L266.793 490.434C266.793 490.434 137.793 534.434 46.7931 514.434H44.7931Z" fill="#D60E64"/>
<path opacity="0.1" d="M82.293 243.934V280.934L200.285 281.095L88.293 268.934L82.293 243.934Z" fill="black"/>
<path opacity="0.1" d="M72.159 346.12L220.293 324.934L72.159 366.89V346.12Z" fill="black"/>
<path opacity="0.1" d="M307.293 248.934L291.412 306.159L318.293 250.822L307.293 248.934Z" fill="black"/>
<path d="M180.234 35.2779L190.164 31.3025C190.164 31.3025 169.401 8.44377 140.514 10.4316L148.638 1.48677C148.638 1.48677 128.778 -6.46401 110.724 14.4069C101.233 25.3783 90.2515 38.2746 83.4059 52.8021H72.7715L77.2099 62.575L61.6754 72.3478L77.62 70.5924C76.6699 75.9442 76.5241 81.4078 77.1873 86.8026C77.8713 92.199 80.6252 97.1186 84.8677 100.523C84.8677 100.523 97.1828 75.0321 97.1828 71.0566V80.9952C97.1828 80.9952 107.113 72.0505 107.113 66.0874L112.529 73.0444L115.237 62.112L148.638 73.0444L143.222 64.0998L163.985 67.0813L155.86 56.1488C155.86 56.1488 179.331 69.069 180.234 80.0014C181.137 90.9338 188.007 101.293 188.007 101.293C188.007 101.293 206.413 50.1857 180.234 35.2779Z" fill="#2F2E41"/>
<path d="M617.293 234.934H233.293V635.934H617.293V234.934Z" fill="#D0CDE1"/>
<path d="M557.293 322.934H273.293V362.934H557.293V322.934Z" fill="#E7E7E7"/>
<path d="M508.111 428.934H322.116V448.934H508.111V428.934Z" fill="#E7E7E7"/>
<path d="M508.47 463.934H322.475V483.934H508.47V463.934Z" fill="#E7E7E7"/>
<path d="M415.832 498.934H322.834V518.934H415.832V498.934Z" fill="#E7E7E7"/>
<path d="M562.293 599.934H519.293V619.934H562.293V599.934Z" fill="#D60E64"/>
<path d="M205.793 285.434C205.793 285.434 292.793 272.434 305.793 291.434C318.793 310.434 213.793 320.434 213.793 320.434L205.793 285.434Z" fill="#A0616A"/>
<path d="M45.7931 192.434H39.5272C36.9501 192.427 34.4655 193.394 32.5714 195.141C26.6234 200.664 14.0468 214.916 8.79306 240.434C1.79306 274.434 -10.2069 340.434 16.7931 345.434C43.7931 350.434 220.793 326.434 220.793 326.434L207.793 280.434L79.7931 281.434C79.7931 281.434 81.7931 259.434 77.7931 245.434C73.7931 231.434 45.7931 192.434 45.7931 192.434Z" fill="#D60E64"/>
<path d="M409.293 134.934C431.937 134.934 450.293 116.578 450.293 93.9343C450.293 71.2907 431.937 52.9343 409.293 52.9343C386.649 52.9343 368.293 71.2907 368.293 93.9343C368.293 116.578 386.649 134.934 409.293 134.934Z" fill="#D0CDE1"/>
<path d="M596.293 134.934C618.937 134.934 637.293 116.578 637.293 93.9343C637.293 71.2907 618.937 52.9343 596.293 52.9343C573.649 52.9343 555.293 71.2907 555.293 93.9343C555.293 116.578 573.649 134.934 596.293 134.934Z" fill="#D60E64"/>
<path d="M783.293 135.934C774.986 135.934 766.866 133.471 759.959 128.856C753.052 124.241 747.669 117.681 744.49 110.007C741.311 102.332 740.479 93.8877 742.1 85.7405C743.721 77.5933 747.721 70.1096 753.595 64.2358C759.468 58.362 766.952 54.3619 775.099 52.7413C783.246 51.1207 791.691 51.9525 799.366 55.1313C807.04 58.3102 813.6 63.6935 818.215 70.6003C822.83 77.5072 825.293 85.6275 825.293 93.9343C825.28 105.07 820.851 115.745 812.978 123.619C805.104 131.493 794.428 135.922 783.293 135.934ZM783.293 53.9343C775.382 53.9343 767.648 56.2802 761.07 60.6755C754.492 65.0708 749.365 71.3179 746.338 78.627C743.31 85.936 742.518 93.9787 744.062 101.738C745.605 109.497 749.415 116.624 755.009 122.219C760.603 127.813 767.73 131.622 775.489 133.166C783.249 134.709 791.291 133.917 798.6 130.889C805.909 127.862 812.157 122.735 816.552 116.157C820.947 109.579 823.293 101.846 823.293 93.9343C823.281 83.3293 819.063 73.1622 811.564 65.6633C804.065 58.1645 793.898 53.9463 783.293 53.9343Z" fill="#3F3D56"/>
<path d="M970.293 135.934C961.986 135.934 953.866 133.471 946.959 128.856C940.052 124.241 934.669 117.681 931.49 110.007C928.311 102.332 927.48 93.8877 929.1 85.7405C930.721 77.5933 934.721 70.1096 940.595 64.2358C946.468 58.362 953.952 54.3619 962.099 52.7413C970.247 51.1207 978.691 51.9525 986.366 55.1313C994.04 58.3102 1000.6 63.6935 1005.21 70.6003C1009.83 77.5072 1012.29 85.6275 1012.29 93.9343C1012.28 105.07 1007.85 115.745 999.978 123.619C992.104 131.493 981.428 135.922 970.293 135.934ZM970.293 53.9343C962.382 53.9343 954.648 56.2802 948.07 60.6755C941.492 65.0708 936.365 71.3179 933.338 78.627C930.31 85.936 929.518 93.9787 931.062 101.738C932.605 109.497 936.415 116.624 942.009 122.219C947.603 127.813 954.73 131.622 962.489 133.166C970.249 134.709 978.291 133.917 985.6 130.889C992.909 127.862 999.157 122.735 1003.55 116.157C1007.95 109.579 1010.29 101.846 1010.29 93.9343C1010.28 83.3293 1006.06 73.1622 998.564 65.6633C991.065 58.1645 980.898 53.9463 970.293 53.9343Z" fill="#3F3D56"/>
<path d="M403.641 111.377L385.873 87.688L392.273 82.887L404.506 99.197L460.745 42.959L466.401 48.615L403.641 111.377Z" fill="#D60E64"/>
<path d="M833.09 633.831H16.4957V636.613H833.09V633.831Z" fill="#3F3D56"/>
</g>
<defs>
<clipPath id="clip0">
<rect width="1012.29" height="636.613" fill="white"/>
</clipPath>
</defs>
</svg>
